PathFileType	4	(X/Y/Z)	C:\Users\Basilio\Documents\Thesis Gigler\squatting_fais\c3dfiles\047\SLS_pre_front4\markers_experimental.trc
DataRate	CameraRate	NumFrames	NumMarkers	Units	OrigDataRate	OrigDataStartFrame	OrigNumFrames
200.000000	200.000000	4	60	mm	200.000000	351	1404
Frame#	Time	FHD			LBHD			RBHD			C7			T10			CLAV			LSHO			LUUPA			LMUPA			LDUPA			LLEP			LMEP			LRAD			LUL			LRFIN			RSHO			RUPA1			RMUPA			RDUPA			RLEP			RMEP			RRAD			RUL			RUFIN			LASI			RASI			USACR			LSACR			RSACR			LTHI1			LTHI2			LTHI3			LTHI4			LLFC			LMFC			LTIB1			LTIB2			LTIB3			LTIB4			LLMAL			LMMAL			LMT1			LMT2			LMT5			RTHI			RTHI2			RTHI3			RTHI4			RLFC			RMFC			RTIB1			RTIB2			RTIB3			RTIB4			RLMAL			RMMAL			RHEE			RMT1			RMT2			RMT5			
		X1	Y1	Z1	X2	Y2	Z2	X3	Y3	Z3	X4	Y4	Z4	X5	Y5	Z5	X6	Y6	Z6	X7	Y7	Z7	X8	Y8	Z8	X9	Y9	Z9	X10	Y10	Z10	X11	Y11	Z11	X12	Y12	Z12	X13	Y13	Z13	X14	Y14	Z14	X15	Y15	Z15	X16	Y16	Z16	X17	Y17	Z17	X18	Y18	Z18	X19	Y19	Z19	X20	Y20	Z20	X21	Y21	Z21	X22	Y22	Z22	X23	Y23	Z23	X24	Y24	Z24	X25	Y25	Z25	X26	Y26	Z26	X27	Y27	Z27	X28	Y28	Z28	X29	Y29	Z29	X30	Y30	Z30	X31	Y31	Z31	X32	Y32	Z32	X33	Y33	Z33	X34	Y34	Z34	X35	Y35	Z35	X36	Y36	Z36	X37	Y37	Z37	X38	Y38	Z38	X39	Y39	Z39	X40	Y40	Z40	X41	Y41	Z41	X42	Y42	Z42	X43	Y43	Z43	X44	Y44	Z44	X45	Y45	Z45	X46	Y46	Z46	X47	Y47	Z47	X48	Y48	Z48	X49	Y49	Z49	X50	Y50	Z50	X51	Y51	Z51	X52	Y52	Z52	X53	Y53	Z53	X54	Y54	Z54	X55	Y55	Z55	X56	Y56	Z56	X57	Y57	Z57	X58	Y58	Z58	X59	Y59	Z59	X60	Y60	Z60	

352	1.755	-240.538314819336	1730.853515625	-1047.42578125	-418.0173950195314	1696.6337890625	-1079.337158203125	-399.9739379882814	1698.836303710938	-932.049255371094	-442.2355041503907	1506.648803710938	-1011.648315429688	-412.9397277832032	1193.453369140625	-1008.446960449219	-283.9752807617188	1472.305419921875	-1037.072631835938	-370.0058593750001	1500.508666992188	-1179.844360351563	-277.0802001953126	1440.27880859375	-1313.760986328125	-255.0493927001954	1484.834228515625	-1309.484008789063	-215.8284912109376	1455.162719726563	-1343.410766601563	-159.8921051025391	1482.438232421875	-1365.858032226563	-121.7809219360352	1427.631225585938	-1322.7958984375	104.7872924804688	1520.478881835938	-1384.030395507813	81.53087615966798	1533.438232421875	-1457.054443359375	181.7423400878907	1545.802001953125	-1419.885986328125	-334.2210998535157	1509.29931640625	-885.5293579101565	-198.0695343017579	1454.691162109375	-776.5125732421877	-175.4744415283203	1494.630615234375	-794.0845947265627	-129.3110809326172	1461.58642578125	-773.7274169921877	-64.42581176757814	1483.918823242188	-777.7680664062502	-46.71238708496094	1423.566528320313	-830.7224121093752	198.3888549804688	1519.48681640625	-832.895690917969	189.063461303711	1527.243408203125	-758.7315673828126	275.8830566406251	1544.155639648438	-815.983093261719	-215.0320281982422	990.697448730469	-1110.454711914063	-208.3549804687501	1009.910827636719	-880.9877929687502	-403.5414123535157	1061.484741210938	-1000.801330566406	-402.0940246582032	1027.729858398438	-1027.568359375	-404.8042297363282	1031.7109375	-968.8165283203127	-294.4718017578126	825.369812011719	-1170.215087890625	-255.2631378173829	750.5507812500001	-1168.193237304688	-206.6255645751954	757.6958007812501	-1159.111450195313	-280.6840820312501	695.5517578125001	-1158.786254882813	-295.9913635253907	523.2651977539064	-1117.338256835938	-261.1337890625001	517.8822021484376	-999.1001586914065	-269.0241088867188	340.0697631835938	-1018.086242675781	-282.1275634765626	290.6350097656251	-1088.928588867188	-264.1069335937501	289.6976928710938	-1045.102416992188	-280.4799194335938	214.8634643554688	-1009.991027832031	-335.8628234863282	117.9454040527344	-1049.493896484375	-312.9817810058594	135.7380981445313	-964.6058349609377	-191.5869140625	62.39599990844728	-978.834411621094	-189.9676513671875	58.60662078857423	-1023.266540527344	-237.4273986816407	44.1673698425293	-1069.117309570313	-204.2440490722657	844.560974121094	-785.6456298828127	-139.3603668212891	829.577331542969	-794.0969848632815	-118.3466186523438	851.5584716796877	-805.9775390625002	-105.9372711181641	753.4737548828126	-799.9434204101565	-6.744580745697023	646.3635864257814	-825.535095214844	2.259849071502686	645.7512207031251	-950.155944824219	90.49756622314455	557.9683837890626	-851.7453613281252	88.12700653076173	457.9472961425782	-805.049987792969	122.0712280273438	479.8132629394532	-828.319519042969	150.8643798828125	443.2795410156251	-864.3145751953127	181.4219665527344	285.5212707519532	-829.0133056640627	185.821029663086	304.6729431152344	-919.1679687500002	137.8836669921875	228.2673492431641	-872.060974121094	334.3951721191407	291.5705871582032	-921.505798339844	340.2818298339844	302.1980285644532	-877.5852661132815	314.6550292968751	264.1535339355469	-815.748474121094	
353	1.76	-240.3896026611329	1730.866455078125	-1047.550659179688	-418.0914916992189	1696.667236328125	-1079.3837890625	-399.9697265625001	1698.897094726563	-932.0379638671877	-441.6530151367189	1506.294067382813	-1011.829162597656	-413.049285888672	1193.039184570313	-1008.491821289063	-283.7460021972657	1472.368896484375	-1037.114013671875	-369.9425048828126	1500.60546875	-1179.880981445313	-277.0986633300782	1440.36328125	-1313.7490234375	-254.8620758056641	1484.838745117188	-1309.56689453125	-215.7922668457032	1455.20751953125	-1343.433959960938	-158.8990783691407	1481.762573242188	-1366.14453125	-121.7610702514649	1427.713745117188	-1322.921020507813	105.1825637817383	1520.6171875	-1384.258422851563	81.61555480957033	1533.43896484375	-1457.150024414063	181.756820678711	1545.808959960938	-1419.88623046875	-334.1680908203126	1509.374877929688	-885.5550537109377	-198.0363464355469	1454.748657226563	-776.4708251953127	-175.1814727783203	1494.803588867188	-794.3025512695315	-129.2631072998047	1461.609130859375	-773.5467529296877	-64.31461334228517	1483.95458984375	-777.8526611328127	-46.6811752319336	1423.606811523438	-830.6315917968752	198.5931091308594	1519.472534179688	-832.9808349609377	189.1277465820313	1527.220336914063	-758.7969360351564	276.1142883300782	1543.9560546875	-815.9432373046877	-215.0545654296876	990.670104980469	-1110.404418945313	-208.3862762451172	1009.904602050781	-880.993835449219	-403.521453857422	1061.55419921875	-1000.785461425781	-402.0717163085939	1027.79443359375	-1027.597412109375	-404.8148498535157	1031.86962890625	-968.7612915039065	-294.6150817871094	825.3699340820315	-1170.234252929688	-255.4205169677735	750.5256958007814	-1168.198608398438	-206.7311401367188	757.7142333984376	-1159.09228515625	-280.7419128417969	695.5240478515626	-1158.912475585938	-296.1173400878907	523.2765502929689	-1117.38623046875	-261.2452392578126	517.8781738281251	-999.1675415039065	-269.0935363769532	340.0794677734376	-1018.135437011719	-282.2558898925782	290.6535339355469	-1089.010009765625	-264.3754272460938	289.7785034179688	-1045.078979492188	-280.4801330566407	214.8653564453126	-1010.166259765625	-335.8406066894532	117.9115219116211	-1049.564697265625	-312.9996337890626	135.9294738769532	-964.761169433594	-191.5827026367188	62.42807388305665	-978.8698730468752	-189.9583740234375	58.61876678466798	-1023.309387207031	-237.4234924316407	44.13639068603516	-1069.123291015625	-204.2550048828126	844.665466308594	-785.5913085937502	-139.3863067626953	829.5828857421877	-794.171813964844	-118.3652496337891	851.616882324219	-805.9521484375002	-106.0362243652344	753.4643554687501	-799.9180297851565	-6.74984121322632	646.3861083984376	-825.5213623046877	2.040749549865723	645.7039184570314	-950.096130371094	90.44676971435548	558.0934448242189	-851.7764282226565	88.11550140380861	457.9635620117189	-805.0455322265627	122.0693359375	479.8492126464845	-828.416687011719	150.85205078125	443.2825012207032	-864.3457031250002	181.1583099365235	285.5733642578126	-828.9129028320315	185.662582397461	304.6730041503907	-919.1672363281252	137.8467864990235	228.2407684326172	-872.0721435546877	334.1640930175782	291.5242919921876	-921.3413085937502	340.0062561035157	302.3405761718751	-877.5545043945315	314.5820922851563	264.1386718750001	-815.831970214844	
354	1.765	-240.2612457275391	1730.973754882813	-1047.617309570313	-418.0354919433595	1696.77099609375	-1079.467651367188	-399.8954162597657	1698.969970703125	-932.1456298828127	-441.6387023925782	1506.638061523438	-1011.899597167969	-412.8760070800782	1193.572998046875	-1008.513061523438	-283.8728027343751	1472.452758789063	-1037.166015625	-369.7155151367188	1500.668212890625	-1179.9794921875	-277.0734558105469	1440.404174804688	-1313.787109375	-254.7872619628907	1484.871948242188	-1309.624145507813	-215.7151336669922	1455.260375976563	-1343.50390625	-158.9649810791016	1481.820434570313	-1366.136962890625	-121.7682189941407	1427.781982421875	-1323.096557617188	105.2144775390625	1520.596557617188	-1384.142944335938	81.63614654541017	1533.528564453125	-1457.178344726563	181.8968963623047	1545.824584960938	-1419.9189453125	-334.1767578125001	1509.455688476563	-885.5354003906252	-198.0078887939454	1454.882934570313	-776.470153808594	-174.946517944336	1494.96923828125	-794.4428710937502	-129.2201080322266	1461.678955078125	-773.4570922851565	-64.00295257568361	1484.052490234375	-778.0977172851565	-46.61169052124024	1423.640991210938	-830.7517089843752	198.6420593261719	1519.449951171875	-833.062438964844	189.193359375	1527.228759765625	-758.8510742187501	276.3769531250001	1543.900024414063	-816.1524658203127	-215.1246795654297	990.726257324219	-1110.400756835938	-208.4026184082032	1009.900512695313	-880.9816894531252	-403.5135192871095	1061.60595703125	-1000.858642578125	-402.0689086914064	1027.872802734375	-1027.607177734375	-404.7796936035157	1031.887573242188	-968.834411621094	-294.7340393066407	825.4526977539065	-1170.26611328125	-255.5445709228516	750.5300903320314	-1168.234375	-206.7823944091797	757.7254028320314	-1159.25732421875	-280.9792175292969	695.5811157226564	-1158.812377929688	-296.2871704101563	523.3460693359376	-1117.376586914063	-261.4565429687501	517.6895751953126	-999.1210937500002	-269.1640319824219	340.0649108886719	-1018.125427246094	-282.3604125976563	290.6531372070313	-1089.003540039063	-264.4988098144532	289.6885986328126	-1044.978881835938	-280.5333862304688	214.8996734619141	-1010.250854492188	-335.8320312500001	117.9340896606446	-1049.566650390625	-313.0204772949219	135.93701171875	-964.7683715820315	-191.5615234375	62.43422698974611	-978.8933105468752	-189.963119506836	58.61410903930665	-1023.305297851563	-237.5970153808594	44.04392623901368	-1069.020629882813	-204.316879272461	844.6761474609377	-785.5445556640627	-139.3845825195313	829.5989379882815	-794.2277832031252	-118.3659973144532	851.6480102539065	-806.0142211914065	-106.0066146850586	753.5481567382814	-799.9378662109377	-6.763529777526857	646.4358520507814	-825.5130004882815	1.995699286460877	645.7409057617189	-950.1203613281252	90.43978118896486	558.1260986328126	-851.8787841796877	88.06480407714845	457.9776611328126	-805.0139770507815	122.1001510620117	479.8519287109376	-828.5010986328127	150.8348083496094	443.2418823242189	-864.3718872070315	180.9790344238282	285.5516052246094	-828.7989501953127	185.5498352050782	304.6142272949219	-919.0841064453127	137.7829742431641	228.2702789306641	-872.109558105469	334.2500000000001	291.5762329101563	-921.5291137695315	339.9588012695313	302.3800964355469	-877.6104125976565	314.2800292968751	263.9909057617188	-815.686706542969	
355	1.77	-240.1658172607422	1731.062622070313	-1047.726196289063	-417.9847412109376	1696.673217773438	-1079.577880859375	-399.7447814941407	1699.076538085938	-932.2938232421877	-441.6298217773439	1506.697998046875	-1011.950744628906	-413.0520324707032	1193.089599609375	-1008.518981933594	-283.8185729980469	1472.494506835938	-1037.210205078125	-369.5364685058594	1500.76611328125	-1180.084350585938	-277.0235595703126	1440.4833984375	-1313.83447265625	-254.7059478759766	1484.904174804688	-1309.684448242188	-215.7030029296876	1455.297485351563	-1343.471801757813	-158.867416381836	1481.838745117188	-1366.190551757813	-121.7890853881836	1427.798217773438	-1323.130859375	105.0859832763672	1520.580200195313	-1384.1943359375	81.72630310058595	1533.503784179688	-1457.2177734375	182.03662109375	1545.841674804688	-1419.903686523438	-334.1515197753907	1509.533813476563	-885.5192871093752	-197.9807586669922	1455.000244140625	-776.3001708984377	-174.8169860839844	1495.027465820313	-794.506530761719	-129.1259002685547	1461.761474609375	-773.507751464844	-63.93706512451173	1484.057983398438	-778.065856933594	-46.53076171875001	1423.70751953125	-830.799011230469	198.4085693359376	1519.804443359375	-833.032897949219	189.2060241699219	1527.222045898438	-758.8598022460939	276.4476013183594	1543.882568359375	-816.2219238281252	-215.1866149902344	990.692810058594	-1110.424194335938	-208.4093322753907	1009.945922851563	-880.9971923828127	-403.6486816406251	1061.66357421875	-1000.844299316406	-402.1663208007814	1027.925537109375	-1027.615356445313	-404.9353942871095	1032.034545898438	-968.795104980469	-294.9456481933594	825.4464111328127	-1170.22314453125	-255.7194976806641	750.5216064453126	-1168.2548828125	-206.9453735351563	757.7268676757814	-1159.204833984375	-281.0804748535157	695.6050415039064	-1158.85400390625	-296.4751892089844	523.3575439453126	-1117.411865234375	-261.5180664062501	517.7124023437501	-999.145935058594	-269.2424316406251	340.0883789062501	-1018.095031738281	-282.4041137695313	290.6926574707032	-1089.101440429688	-264.6046447753907	289.7653503417969	-1044.897216796875	-280.6221313476563	214.9277801513672	-1010.190368652344	-335.7706298828126	117.9595108032227	-1049.5966796875	-313.0225830078126	135.932846069336	-964.7979736328127	-191.8214721679688	62.39548110961915	-978.6838378906252	-189.986557006836	58.60473251342775	-1023.318786621094	-237.4697723388672	44.14960861206055	-1069.09521484375	-204.2969207763672	844.694519042969	-785.5308227539065	-139.3631134033203	829.6223754882815	-794.229431152344	-118.4290542602539	851.6692504882815	-805.9151000976565	-106.0625305175782	753.5507812500001	-799.8856201171877	-6.748995780944826	646.4644775390626	-825.5791625976565	2.362575292587281	645.7985229492189	-950.2559814453127	90.44982910156251	558.1154785156251	-851.8553466796877	88.05511474609376	458.0608520507814	-805.0084228515627	122.0063095092774	479.8684997558595	-828.3098144531252	150.8003692626953	443.288299560547	-864.3903808593752	180.938720703125	285.5740356445313	-828.7844238281252	185.3728332519532	304.5888366699219	-919.080017089844	137.7089538574219	228.1761779785157	-872.0896606445315	333.8387756347657	291.4112243652344	-921.4136352539065	339.7683105468751	302.2961730957032	-877.5451660156252	314.3043823242188	264.0572204589844	-815.7908325195315	
